<svg width="196" height="50" viewBox="0 0 196 50" fill="none" xmlns="http://www.w3.org/2000/svg">
<path d="M35 0H15C6.71573 0 0 6.71573 0 15V35C0 43.2843 6.71573 50 15 50H35C43.2843 50 50 43.2843 50 35V15C50 6.71573 43.2843 0 35 0Z" fill="black"/>
<path d="M25.4188 30.0746C22.1224 28.0875 22.2132 23.2771 25.5823 21.4158L42.2592 12.2028C45.6282 10.3416 49.7488 12.8254 49.6761 16.6737L49.3164 35.7229C49.2437 39.5712 45.0324 41.8977 41.736 39.9107L25.4188 30.0746Z" fill="#F7F7F7"/>
<path d="M56.32 20H54.7V7.3H56.32V20ZM62.3595 10.06H63.7395C64.5129 10.06 65.0729 10.2067 65.4195 10.5C65.7662 10.7933 65.9395 11.3267 65.9395 12.1V20H64.3595V11.54C64.3595 11.42 64.2995 11.36 64.1795 11.36H60.9195C60.7862 11.36 60.7195 11.42 60.7195 11.54L60.7395 20H59.1595V10.2H60.5395L60.7195 11.36L60.5395 11.9C60.5395 11.2733 60.6795 10.8133 60.9595 10.52C61.2529 10.2133 61.7195 10.06 62.3595 10.06ZM72.4858 10.2V11.44H69.9658L70.1658 11.24V18.5C70.1658 18.62 70.2258 18.68 70.3458 18.68H72.4858V20H71.0858C70.2058 20 69.5658 19.8333 69.1658 19.5C68.7791 19.1667 68.5858 18.5933 68.5858 17.78V11.24L68.7858 11.44H67.3858V10.2H68.7858L68.5858 10.4V7.7H70.1658V10.4L69.9658 10.2H72.4858ZM80.0303 20.1H76.0303C75.1636 20.1 74.5303 19.94 74.1303 19.62C73.7303 19.2867 73.5303 18.7067 73.5303 17.88V12.22C73.5303 11.3933 73.7036 10.8267 74.0503 10.52C74.397 10.2133 74.9836 10.06 75.8103 10.06H77.9103C78.7636 10.06 79.3703 10.2133 79.7303 10.52C80.0903 10.8267 80.2703 11.3933 80.2703 12.22V16.16H74.9303V14.98H78.6903V11.54C78.6903 11.42 78.6236 11.36 78.4903 11.36H75.3103C75.1903 11.36 75.1303 11.42 75.1303 11.54V18.6C75.1303 18.72 75.1903 18.78 75.3103 18.78H80.0303V20.1ZM85.4059 10.06H86.5059V11.42H83.9659C83.8326 11.42 83.7659 11.48 83.7659 11.6L83.7859 20H82.2059L82.1859 10.2H83.5859L83.7659 11.36L83.5859 11.9C83.5859 11.2733 83.7259 10.8133 84.0059 10.52C84.2993 10.2133 84.7659 10.06 85.4059 10.06ZM93.9756 20.1H89.9756C89.109 20.1 88.4756 19.94 88.0756 19.62C87.6756 19.2867 87.4756 18.7067 87.4756 17.88V12.22C87.4756 11.3933 87.649 10.8267 87.9956 10.52C88.3423 10.2133 88.929 10.06 89.7556 10.06H91.8556C92.709 10.06 93.3156 10.2133 93.6756 10.52C94.0356 10.8267 94.2156 11.3933 94.2156 12.22V16.16H88.8756V14.98H92.6356V11.54C92.6356 11.42 92.569 11.36 92.4356 11.36H89.2556C89.1356 11.36 89.0756 11.42 89.0756 11.54V18.6C89.0756 18.72 89.1356 18.78 89.2556 18.78H93.9756V20.1ZM99.8913 20.08H95.8513V18.78H100.351C100.471 18.78 100.531 18.72 100.531 18.6V15.82C100.531 15.7 100.471 15.64 100.351 15.64H98.0513C97.2113 15.64 96.6046 15.4867 96.2313 15.18C95.8713 14.8733 95.6912 14.32 95.6912 13.52V12.24C95.6912 11.4133 95.8779 10.8467 96.2513 10.54C96.6379 10.22 97.2446 10.06 98.0713 10.06L101.631 10.08V11.4L97.4913 11.38C97.3579 11.38 97.2913 11.4467 97.2913 11.58V14.2C97.2913 14.32 97.3579 14.38 97.4913 14.38H99.7513C100.605 14.38 101.211 14.5333 101.571 14.84C101.931 15.1333 102.111 15.6867 102.111 16.5V18.02C102.111 18.7933 101.938 19.3333 101.591 19.64C101.245 19.9333 100.678 20.08 99.8913 20.08ZM108.13 10.2V11.44H105.61L105.81 11.24V18.5C105.81 18.62 105.87 18.68 105.99 18.68H108.13V20H106.73C105.85 20 105.21 19.8333 104.81 19.5C104.424 19.1667 104.23 18.5933 104.23 17.78V11.24L104.43 11.44H103.03V10.2H104.43L104.23 10.4V7.7H105.81V10.4L105.61 10.2H108.13ZM61.46 35.16V29.3H63.08V42H61.46V35.98L61.76 36.26H55.76L56.06 35.98V42H54.44V29.3H56.06V35.16L55.76 34.84H61.76L61.46 35.16ZM68.6634 42.14H67.3634C66.6034 42.14 66.0434 41.9933 65.6834 41.7C65.3368 41.3933 65.1634 40.86 65.1634 40.1V38.46C65.1634 37.6467 65.3434 37.0933 65.7034 36.8C66.0634 36.4933 66.6634 36.34 67.5034 36.34H70.4834V37.5H66.9234C66.7901 37.5 66.7234 37.5667 66.7234 37.7V40.66C66.7234 40.78 66.7901 40.84 66.9234 40.84H70.2834V33.7C70.2834 33.5667 70.2234 33.5 70.1034 33.5L65.7034 33.52V32.2L69.5034 32.18C70.3434 32.18 70.9501 32.34 71.3234 32.66C71.6968 32.9667 71.8834 33.54 71.8834 34.38V42H70.4834L70.2834 40.84L70.4034 40.3C70.4034 40.9267 70.2701 41.3933 70.0034 41.7C69.7501 41.9933 69.3034 42.14 68.6634 42.14ZM79.1238 40.14C79.0171 40.6333 78.8904 41.0333 78.7438 41.34C78.5971 41.6333 78.3904 41.84 78.1237 41.96C77.8571 42.08 77.4638 42.1267 76.9438 42.1L75.1238 42L72.9238 32.2H74.5038L76.4038 40.84H77.4038C77.4704 40.84 77.5171 40.8267 77.5438 40.8C77.5704 40.7733 77.5904 40.7267 77.6038 40.66L79.4438 32.2H80.9638L79.1238 40.14ZM88.5264 42.1H84.5264C83.6597 42.1 83.0264 41.94 82.6264 41.62C82.2264 41.2867 82.0264 40.7067 82.0264 39.88V34.22C82.0264 33.3933 82.1997 32.8267 82.5464 32.52C82.8931 32.2133 83.4797 32.06 84.3064 32.06H86.4064C87.2597 32.06 87.8664 32.2133 88.2264 32.52C88.5864 32.8267 88.7664 33.3933 88.7664 34.22V38.16H83.4264V36.98H87.1864V33.54C87.1864 33.42 87.1197 33.36 86.9864 33.36H83.8064C83.6864 33.36 83.6264 33.42 83.6264 33.54V40.6C83.6264 40.72 83.6864 40.78 83.8064 40.78H88.5264V42.1ZM93.922 32.06H95.302C96.0754 32.06 96.6354 32.2067 96.982 32.5C97.3287 32.7933 97.502 33.3267 97.502 34.1V42H95.922V33.54C95.922 33.42 95.862 33.36 95.742 33.36H92.482C92.3487 33.36 92.282 33.42 92.282 33.54L92.302 42H90.722V32.2H92.102L92.282 33.36L92.102 33.9C92.102 33.2733 92.242 32.8133 92.522 32.52C92.8154 32.2133 93.282 32.06 93.922 32.06Z" fill="black"/>
</svg>
